<mxfile host="app.diagrams.net" agent="Mozilla/5.0 (Windows NT 10.0; Win64; x64) AppleWebKit/537.36 (KHTML, like Gecko) Chrome/130.0.0.0 Safari/537.36 Edg/130.0.0.0" version="24.8.3">
  <diagram name="Сторінка-1" id="nwMHuGksQ41rX2PvBsxc">
    <mxGraphModel dx="1619" dy="749" grid="1" gridSize="10" guides="1" tooltips="1" connect="1" arrows="1" fold="1" page="1" pageScale="1" pageWidth="827" pageHeight="1169" math="0" shadow="0">
      <root>
        <mxCell id="0" />
        <mxCell id="1" parent="0" />
        <mxCell id="9UbeZKUy0TKtWKQS3XBo-5" value="WeatherBase" style="swimlane;fontStyle=0;childLayout=stackLayout;horizontal=1;startSize=26;fillColor=none;horizontalStack=0;resizeParent=1;resizeParentMax=0;resizeLast=0;collapsible=1;marginBottom=0;whiteSpace=wrap;html=1;" vertex="1" parent="1">
          <mxGeometry x="50" y="40" width="140" height="52" as="geometry" />
        </mxCell>
        <mxCell id="9UbeZKUy0TKtWKQS3XBo-6" value="method: getPressure" style="text;strokeColor=none;fillColor=none;align=left;verticalAlign=top;spacingLeft=4;spacingRight=4;overflow=hidden;rotatable=0;points=[[0,0.5],[1,0.5]];portConstraint=eastwest;whiteSpace=wrap;html=1;" vertex="1" parent="9UbeZKUy0TKtWKQS3XBo-5">
          <mxGeometry y="26" width="140" height="26" as="geometry" />
        </mxCell>
        <mxCell id="9UbeZKUy0TKtWKQS3XBo-10" value="IWeather" style="swimlane;fontStyle=1;align=center;verticalAlign=top;childLayout=stackLayout;horizontal=1;startSize=26;horizontalStack=0;resizeParent=1;resizeParentMax=0;resizeLast=0;collapsible=1;marginBottom=0;whiteSpace=wrap;html=1;" vertex="1" parent="1">
          <mxGeometry x="390" y="20" width="210" height="140" as="geometry" />
        </mxCell>
        <mxCell id="9UbeZKUy0TKtWKQS3XBo-13" value="+ method(double): getTemperature&lt;div&gt;&lt;br&gt;&lt;/div&gt;&lt;div&gt;+method(double): getFeelsLike&lt;/div&gt;&lt;div&gt;&lt;br&gt;&lt;/div&gt;&lt;div&gt;+method(double): getTempMax&lt;/div&gt;&lt;div&gt;&lt;br&gt;&lt;/div&gt;&lt;div&gt;+method(double): getTempMin&lt;/div&gt;" style="text;strokeColor=none;fillColor=none;align=left;verticalAlign=top;spacingLeft=4;spacingRight=4;overflow=hidden;rotatable=0;points=[[0,0.5],[1,0.5]];portConstraint=eastwest;whiteSpace=wrap;html=1;" vertex="1" parent="9UbeZKUy0TKtWKQS3XBo-10">
          <mxGeometry y="26" width="210" height="114" as="geometry" />
        </mxCell>
        <mxCell id="9UbeZKUy0TKtWKQS3XBo-15" value="Weather" style="swimlane;fontStyle=0;childLayout=stackLayout;horizontal=1;startSize=26;fillColor=none;horizontalStack=0;resizeParent=1;resizeParentMax=0;resizeLast=0;collapsible=1;marginBottom=0;whiteSpace=wrap;html=1;" vertex="1" parent="1">
          <mxGeometry x="40" y="320" width="140" height="52" as="geometry" />
        </mxCell>
        <mxCell id="9UbeZKUy0TKtWKQS3XBo-19" value="WeatherCelsius" style="swimlane;fontStyle=0;childLayout=stackLayout;horizontal=1;startSize=26;fillColor=none;horizontalStack=0;resizeParent=1;resizeParentMax=0;resizeLast=0;collapsible=1;marginBottom=0;whiteSpace=wrap;html=1;" vertex="1" parent="1">
          <mxGeometry x="280" y="320" width="140" height="52" as="geometry" />
        </mxCell>
        <mxCell id="9UbeZKUy0TKtWKQS3XBo-23" style="edgeStyle=orthogonalEdgeStyle;rounded=0;orthogonalLoop=1;jettySize=auto;html=1;exitX=0;exitY=0.5;exitDx=0;exitDy=0;entryX=0.5;entryY=0;entryDx=0;entryDy=0;" edge="1" parent="1" source="9UbeZKUy0TKtWKQS3XBo-13" target="9UbeZKUy0TKtWKQS3XBo-15">
          <mxGeometry relative="1" as="geometry" />
        </mxCell>
        <mxCell id="9UbeZKUy0TKtWKQS3XBo-24" style="edgeStyle=orthogonalEdgeStyle;rounded=0;orthogonalLoop=1;jettySize=auto;html=1;exitX=1;exitY=0.5;exitDx=0;exitDy=0;entryX=0.5;entryY=0;entryDx=0;entryDy=0;" edge="1" parent="1" source="9UbeZKUy0TKtWKQS3XBo-13" target="9UbeZKUy0TKtWKQS3XBo-19">
          <mxGeometry relative="1" as="geometry" />
        </mxCell>
        <mxCell id="9UbeZKUy0TKtWKQS3XBo-26" style="edgeStyle=orthogonalEdgeStyle;rounded=0;orthogonalLoop=1;jettySize=auto;html=1;entryX=0.571;entryY=0.019;entryDx=0;entryDy=0;entryPerimeter=0;" edge="1" parent="1" source="9UbeZKUy0TKtWKQS3XBo-5" target="9UbeZKUy0TKtWKQS3XBo-15">
          <mxGeometry relative="1" as="geometry" />
        </mxCell>
        <mxCell id="9UbeZKUy0TKtWKQS3XBo-27" style="edgeStyle=orthogonalEdgeStyle;rounded=0;orthogonalLoop=1;jettySize=auto;html=1;entryX=0;entryY=0.5;entryDx=0;entryDy=0;" edge="1" parent="1" source="9UbeZKUy0TKtWKQS3XBo-6" target="9UbeZKUy0TKtWKQS3XBo-19">
          <mxGeometry relative="1" as="geometry" />
        </mxCell>
      </root>
    </mxGraphModel>
  </diagram>
</mxfile>
